<?xml version="1.0" encoding="utf-8"?>
<!-- Generator: Adobe Illustrator 17.1.0, SVG Export Plug-In . SVG Version: 6.00 Build 0)  -->
<!DOCTYPE svg PUBLIC "-//W3C//DTD SVG 1.1//EN" "http://www.w3.org/Graphics/SVG/1.1/DTD/svg11.dtd">
<svg version="1.1" id="Layer_1" xmlns="http://www.w3.org/2000/svg" xmlns:xlink="http://www.w3.org/1999/xlink" x="0px" y="0px"
	 viewBox="0 0 226.8 141.7" enable-background="new 0 0 226.8 141.7" xml:space="preserve">
<g>
	<g>
		<path fill="#FFFFFF" d="M45.9,41.5c0-2.5-0.9-4.1-2.8-4.1c-6.3,0-12.8,18.3-12.8,29.4c0,6.8,2.4,8.4,7.2,8.4
			c7.9,0,12.7-4.4,17.7-10.1h3.4c-5.7,9.2-14.2,18.5-27.5,18.5c-9.4,0-15.6-4.6-15.6-15.9c0-11.6,6.6-35.6,26.9-35.6
			c8.9,0,11.1,4.6,11.1,9.2c0,4.9-2.4,7.3-5.3,7.3c-1.1,0-2.3-0.4-3.5-1.2C45.5,45.2,45.9,43.2,45.9,41.5z"/>
		<path fill="#FFFFFF" d="M80.3,41.7c-3.9,0-7,6.1-7.6,8.8L65.8,83H51.4l14.5-68l14.8-2l-5.4,25.2c4.2-4.8,8.6-5.6,11.7-5.6
			c6.4,0,11.1,3.3,11.1,11.3c0,8.1-4.8,20.2-4.8,25.8c0,2.5,1,4.2,4,4.2c4.4,0,6.2-3.6,8.4-8.8h4.2c-5.6,16.4-13.3,18.5-18.6,18.5
			c-8.7,0-11.8-5.6-11.8-11.3c0-6.8,4.5-19.1,4.5-25.5C84,43.5,82.8,41.7,80.3,41.7z"/>
		<path fill="#FFFFFF" d="M144.5,48.1c0.4,0.2,0.8,0.2,1.1,0.2c4.6,0,11.1-3,15.4-6l0.9,2.7c-3.8,4.1-10.4,7.1-17.7,8.3
			c-1.6,18.5-11.6,30.1-23.9,30.1c-9.3,0-16-4.4-16-15.8c0-11.5,6.8-35.5,27.4-35.5C140.3,32.1,144.5,37.6,144.5,48.1z M135.9,53.6
			c-2.1-0.5-2.7-2.2-2.7-4.2c0-2.8,1.3-4.6,3.1-5.4c-0.2-4.2-1.2-5.8-3.8-5.8c-7.1,0-13.3,18.3-13.3,28.1c0,6.6,1.3,8.1,5.1,8.1
			C129.2,74.4,134.3,65.4,135.9,53.6z"/>
		<path fill="#FFFFFF" d="M170.8,33l-7.2,34c-0.3,1.3-0.4,2.3-0.4,3.2c0,2.5,1.8,3.6,4.4,3.6c5.1,0,11.6-3.9,15.9-9.4L177.8,33h14.1
			l3.9,21.6c5.9-6.4,9.5-12.3,9.5-15.9c0-0.4,0-0.8-0.1-1.2c-0.6,0.1-1.2,0.2-1.7,0.2c-3.5,0-4.7-2.5-4.7-5.6c0-3,2.5-4.7,5.6-4.7
			c4.5,0,6.8,4,6.8,8.9c0,6.5-4.5,13.4-14.3,23.8l0.9,5c1.1,5.9,1.9,8.8,6.3,8.8c1.8,0,2.6-0.3,3.2-0.6c-0.5,7.1-5.6,10.3-11,10.3
			c-6.4,0-9.4-4-11.6-13.7c-6.5,7.3-16.1,13.7-25.3,13.7c-6.1,0-10.6-3.7-10.6-11.9c0-1.9,0.3-4.1,0.8-6.6l6.8-32.1H170.8z
			 M166.3,11.7c4.4,0,8,3.6,8,8c0,4.4-3.6,7.9-8,7.9s-7.9-3.5-7.9-7.9C158.4,15.3,161.9,11.7,166.3,11.7z"/>
	</g>
	<g>
		<g>
			<path fill="#FFFFFF" d="M33.9,102.4c7.1,0,12.9,5.8,12.9,12.9s-5.8,12.9-12.9,12.9S21,122.4,21,115.3S26.8,102.4,33.9,102.4
				 M33.9,98.4c-9.3,0-16.9,7.6-16.9,16.9c0,9.3,7.6,16.9,16.9,16.9s16.9-7.6,16.9-16.9C50.8,105.9,43.3,98.4,33.9,98.4L33.9,98.4z"
				/>
		</g>
		<g>
			<path fill="#FFFFFF" d="M73.7,130.2c-8.2,0-14.9-6.7-14.9-14.9s6.7-14.9,14.9-14.9s14.9,6.7,14.9,14.9S81.9,130.2,73.7,130.2z"/>
			<path fill="#FFFFFF" d="M73.7,102.4c7.1,0,12.9,5.8,12.9,12.9s-5.8,12.9-12.9,12.9s-12.9-5.8-12.9-12.9S66.5,102.4,73.7,102.4
				 M73.7,98.4c-9.3,0-16.9,7.6-16.9,16.9c0,9.3,7.6,16.9,16.9,16.9s16.9-7.6,16.9-16.9C90.6,105.9,83,98.4,73.7,98.4L73.7,98.4z"/>
		</g>
		<g>
			<path fill="#FFFFFF" d="M113.4,102.4c7.1,0,12.9,5.8,12.9,12.9s-5.8,12.9-12.9,12.9c-7.1,0-12.9-5.8-12.9-12.9
				S106.3,102.4,113.4,102.4 M113.4,98.4c-9.3,0-16.9,7.6-16.9,16.9c0,9.3,7.6,16.9,16.9,16.9c9.3,0,16.9-7.6,16.9-16.9
				C130.3,105.9,122.7,98.4,113.4,98.4L113.4,98.4z"/>
		</g>
		<g>
			<path fill="#FFFFFF" d="M153.1,102.4c7.1,0,12.9,5.8,12.9,12.9s-5.8,12.9-12.9,12.9s-12.9-5.8-12.9-12.9S146,102.4,153.1,102.4
				 M153.1,98.4c-9.3,0-16.9,7.6-16.9,16.9c0,9.3,7.6,16.9,16.9,16.9s16.9-7.6,16.9-16.9C170,105.9,162.5,98.4,153.1,98.4
				L153.1,98.4z"/>
		</g>
		<g>
			<path fill="#FFFFFF" d="M192.9,102.4c7.1,0,12.9,5.8,12.9,12.9s-5.8,12.9-12.9,12.9s-12.9-5.8-12.9-12.9S185.7,102.4,192.9,102.4
				 M192.9,98.4c-9.3,0-16.9,7.6-16.9,16.9c0,9.3,7.6,16.9,16.9,16.9c9.3,0,16.9-7.6,16.9-16.9C209.8,105.9,202.2,98.4,192.9,98.4
				L192.9,98.4z"/>
		</g>
	</g>
</g>
<g>
</g>
<g>
</g>
<g>
</g>
<g>
</g>
<g>
</g>
<g>
</g>
</svg>
